<svg width="960" height="800" viewBox="0 0 960 800" fill="none" xmlns="http://www.w3.org/2000/svg">
<path opacity="0.1" fill-rule="evenodd" clip-rule="evenodd" d="M960 724.743C960 1058.52 668.58 1136.67 594.577 1151.13C588.774 1152.28 585.562 1152.99 580.013 1153.63C577.787 1153.89 572.491 1154 569.167 1154L300.424 1153.8C297.015 1153.8 285.719 1153.35 285.156 1153.32C274.141 1152.51 252.168 1150.51 224.026 1145.58C117.881 1127.24 -75.9294 1069.34 -97.057 889.577C-114.72 739.138 -50.4354 664.032 30.3003 563.627C95.3734 482.688 44.3854 362.929 43.991 361.802C45.6812 362.704 153.657 422.09 179.433 472.913C192.636 496.989 203.213 522.415 210.984 548.752C210.477 544.611 187.884 358.252 284.226 232.943C381.667 106.169 402.118 67.3198 403.949 2.49591C400.027 -52.5587 385.617 -106.356 361.497 -156C455.706 -96.2335 535.547 -16.3876 595.309 77.828C641.875 151.722 667.735 236.77 670.185 324.08C695.426 298.997 715.145 268.913 728.075 235.76C737.94 197.683 740.067 158.014 734.329 119.1L793.881 220.519C860.728 342.983 960 553.428 960 724.743Z" fill="#D75C1E"/>
</svg>
