<svg width="948" height="800" viewBox="0 0 948 800" fill="none" xmlns="http://www.w3.org/2000/svg">
<path opacity="0.1" fill-rule="evenodd" clip-rule="evenodd" d="M948 724.976C948 553.637 848.731 343.162 781.8 220.822L722.25 119.388C727.987 158.308 725.861 197.983 715.996 236.065C703.086 269.233 683.366 299.325 658.108 324.397C655.66 237.084 629.8 152.032 583.234 78.1386C558.978 41.4523 532.001 6.64134 502.528 -26C496.387 27.3654 470.415 70.8129 384.216 182.813C287.821 308.14 310.441 494.524 310.976 498.666C303.198 472.324 292.631 446.887 279.454 422.788C262.349 396.326 239.931 373.711 213.622 356.377C197.593 419.233 192.617 484.399 198.918 548.96C191.14 522.618 180.572 497.181 167.396 473.082C164.635 467.782 161.381 462.754 157.678 458.064C152.653 478.314 143.313 497.239 130.297 513.543C49.5634 613.962 -14.7193 689.08 2.94294 839.54C24.07 1019.33 217.848 1077.26 324.075 1095.58C346.843 1099.66 369.831 1102.41 392.921 1103.8L677.658 1104H677.827L681.432 1103.46C705.005 1099.57 728.253 1093.92 750.983 1086.56C848.534 1027.78 948 920.01 948 724.976Z" fill="#FF6600"/>
</svg>
