<svg width="521" height="290" viewBox="0 0 521 290" fill="none" xmlns="http://www.w3.org/2000/svg">
<path opacity="0.1" d="M521 433.609C521.169 306.43 410.082 135.467 410.082 135.467C412.901 154.633 411.858 174.17 407.015 192.925C400.658 209.243 390.969 224.051 378.568 236.399C377.341 193.418 364.631 151.553 341.764 115.169C312.409 68.7539 273.167 29.424 226.851 0C231.256 39.5923 230.043 79.6102 223.249 118.862C203.778 209.869 142.607 253.512 67.5361 334.313C36.0221 370.485 -8.85714 440.967 1.52559 514.748C3.14696 526.604 6.07228 538.243 10.2482 549.454C14.6811 561.001 19.7441 572.295 25.4143 583.285C34.1165 600.342 47.0115 614.896 62.8831 625.575C78.7547 636.254 97.0796 642.707 116.13 644.323C116.692 644.323 127.975 644.803 131.38 644.803L399.783 645C403.104 645 408.394 645 410.616 644.633L412.08 644.436C422.744 640.517 520.775 600.117 521 433.609V433.609Z" fill="#FF8300"/>
</svg>
