<svg width="409" height="195" viewBox="0 0 409 195" fill="none" xmlns="http://www.w3.org/2000/svg">
<path opacity="0.1" fill-rule="evenodd" clip-rule="evenodd" d="M298.233 40.0187C301.052 59.1673 300.009 78.6877 295.167 97.4257C288.816 113.749 279.127 128.561 266.723 140.911C265.493 97.9471 252.785 56.0996 229.922 19.7275C225.308 12.7665 220.638 6.14371 215.855 0C190.956 73.5836 134.827 116.167 67.5293 188.595C36.0185 224.781 -8.85624 295.208 1.52544 368.961C1.77865 370.793 2.36947 373.667 3.29791 377.415C12.1249 411.495 31.8845 441.725 59.5376 463.457C87.1906 485.189 121.206 497.219 156.35 497.697L220.047 498.993H245.818C288.362 499.381 329.344 482.964 359.888 453.297C390.431 423.63 408.076 383.103 408.999 340.497V338.158C409.309 210.915 298.233 40.0187 298.233 40.0187V40.0187Z" fill="#FFA511"/>
</svg>
