<svg width="381" height="21" viewBox="0 0 381 21" fill="none" xmlns="http://www.w3.org/2000/svg">
<line x1="0.2" y1="13" x2="0.2" y2="21" stroke="#F2F2F2" stroke-width="0.4"/>
<line x1="4.2" y1="17" x2="4.2" y2="21" stroke="#F2F2F2" stroke-width="0.4"/>
<line x1="8.2" y1="17" x2="8.2" y2="21" stroke="#F2F2F2" stroke-width="0.4"/>
<line x1="12.2" y1="4" x2="12.2" y2="8" stroke="#F2F2F2" stroke-width="0.4"/>
<line x1="16.2" y1="4" x2="16.2" y2="8" stroke="#F2F2F2" stroke-width="0.4"/>
<line x1="20.2" y1="-8.74228e-09" x2="20.2" y2="8" stroke="#F2F2F2" stroke-width="0.4"/>
<line x1="24.2" y1="4" x2="24.2" y2="8" stroke="#F2F2F2" stroke-width="0.4"/>
<line x1="28.2" y1="4" x2="28.2" y2="8" stroke="#F2F2F2" stroke-width="0.4"/>
<line x1="32.2" y1="4" x2="32.2" y2="8" stroke="#F2F2F2" stroke-width="0.4"/>
<line x1="36.2" y1="4" x2="36.2" y2="8" stroke="#F2F2F2" stroke-width="0.4"/>
<line x1="40.2" y1="-8.74228e-09" x2="40.2" y2="8" stroke="#F2F2F2" stroke-width="0.4"/>
<line x1="44.2" y1="4" x2="44.2" y2="8" stroke="#F2F2F2" stroke-width="0.4"/>
<line x1="48.2" y1="4" x2="48.2" y2="8" stroke="#F2F2F2" stroke-width="0.4"/>
<line x1="52.2" y1="4" x2="52.2" y2="8" stroke="#F2F2F2" stroke-width="0.4"/>
<line x1="56.2" y1="4" x2="56.2" y2="8" stroke="#F2F2F2" stroke-width="0.4"/>
<line x1="60.2" y1="-8.74228e-09" x2="60.2" y2="8" stroke="#F2F2F2" stroke-width="0.4"/>
<line x1="64.2" y1="4" x2="64.2" y2="8" stroke="#F2F2F2" stroke-width="0.4"/>
<line x1="68.2" y1="4" x2="68.2" y2="8" stroke="#F2F2F2" stroke-width="0.4"/>
<line x1="72.2" y1="4" x2="72.2" y2="8" stroke="#F2F2F2" stroke-width="0.4"/>
<line x1="76.2" y1="4" x2="76.2" y2="8" stroke="#F2F2F2" stroke-width="0.4"/>
<line x1="80.2" y1="-8.74228e-09" x2="80.2" y2="8" stroke="#F2F2F2" stroke-width="0.4"/>
<line x1="84.2" y1="4" x2="84.2" y2="8" stroke="#F2F2F2" stroke-width="0.4"/>
<line x1="88.2" y1="4" x2="88.2" y2="8" stroke="#F2F2F2" stroke-width="0.4"/>
<line x1="92.2" y1="4" x2="92.2" y2="8" stroke="#F2F2F2" stroke-width="0.4"/>
<line x1="96.2" y1="4" x2="96.2" y2="8" stroke="#F2F2F2" stroke-width="0.4"/>
<line x1="100.2" y1="-8.74228e-09" x2="100.2" y2="8" stroke="#F2F2F2" stroke-width="0.4"/>
<line x1="104.2" y1="4" x2="104.2" y2="8" stroke="#F2F2F2" stroke-width="0.4"/>
<line x1="108.2" y1="4" x2="108.2" y2="8" stroke="#F2F2F2" stroke-width="0.4"/>
<line x1="112.2" y1="4" x2="112.2" y2="8" stroke="#F2F2F2" stroke-width="0.4"/>
<line x1="116.2" y1="4" x2="116.2" y2="8" stroke="#F2F2F2" stroke-width="0.4"/>
<line x1="120.2" y1="-8.74228e-09" x2="120.2" y2="8" stroke="#F2F2F2" stroke-width="0.4"/>
<line x1="124.2" y1="4" x2="124.2" y2="8" stroke="#F2F2F2" stroke-width="0.4"/>
<line x1="128.2" y1="4" x2="128.2" y2="8" stroke="#F2F2F2" stroke-width="0.4"/>
<line x1="132.2" y1="4" x2="132.2" y2="8" stroke="#F2F2F2" stroke-width="0.4"/>
<line x1="136.2" y1="4" x2="136.2" y2="8" stroke="#F2F2F2" stroke-width="0.4"/>
<line x1="140.2" y1="-8.74228e-09" x2="140.2" y2="8" stroke="#F2F2F2" stroke-width="0.4"/>
<line x1="144.2" y1="4" x2="144.2" y2="8" stroke="#F2F2F2" stroke-width="0.4"/>
<line x1="148.2" y1="4" x2="148.2" y2="8" stroke="#F2F2F2" stroke-width="0.4"/>
<line x1="152.2" y1="4" x2="152.2" y2="8" stroke="#F2F2F2" stroke-width="0.4"/>
<line x1="156.2" y1="4" x2="156.2" y2="8" stroke="#F2F2F2" stroke-width="0.4"/>
<line x1="160.2" y1="-8.74228e-09" x2="160.2" y2="8" stroke="#F2F2F2" stroke-width="0.4"/>
<line x1="164.2" y1="4" x2="164.2" y2="8" stroke="#F2F2F2" stroke-width="0.4"/>
<line x1="168.2" y1="4" x2="168.2" y2="8" stroke="#F2F2F2" stroke-width="0.4"/>
<line x1="172.2" y1="4" x2="172.2" y2="8" stroke="#F2F2F2" stroke-width="0.4"/>
<line x1="176.2" y1="4" x2="176.2" y2="8" stroke="#F2F2F2" stroke-width="0.4"/>
<line x1="180.2" y1="-8.74228e-09" x2="180.2" y2="8" stroke="#F2F2F2" stroke-width="0.4"/>
<line x1="184.2" y1="4" x2="184.2" y2="8" stroke="#F2F2F2" stroke-width="0.4"/>
<line x1="188.2" y1="4" x2="188.2" y2="8" stroke="#F2F2F2" stroke-width="0.4"/>
<line x1="192.2" y1="4" x2="192.2" y2="8" stroke="#F2F2F2" stroke-width="0.4"/>
<line x1="196.2" y1="4" x2="196.2" y2="8" stroke="#F2F2F2" stroke-width="0.4"/>
<line x1="200.2" y1="-8.74228e-09" x2="200.2" y2="8" stroke="#F2F2F2" stroke-width="0.4"/>
<line x1="204.2" y1="4" x2="204.2" y2="8" stroke="#F2F2F2" stroke-width="0.4"/>
<line x1="208.2" y1="4" x2="208.2" y2="8" stroke="#F2F2F2" stroke-width="0.4"/>
<line x1="212.2" y1="4" x2="212.2" y2="8" stroke="#F2F2F2" stroke-width="0.4"/>
<line x1="216.2" y1="4" x2="216.2" y2="8" stroke="#F2F2F2" stroke-width="0.4"/>
<line x1="220.2" y1="-8.74228e-09" x2="220.2" y2="8" stroke="#F2F2F2" stroke-width="0.4"/>
<line x1="224.2" y1="4" x2="224.2" y2="8" stroke="#F2F2F2" stroke-width="0.4"/>
<line x1="228.2" y1="4" x2="228.2" y2="8" stroke="#F2F2F2" stroke-width="0.4"/>
<line x1="232.2" y1="4" x2="232.2" y2="8" stroke="#F2F2F2" stroke-width="0.4"/>
<line x1="236.2" y1="4" x2="236.2" y2="8" stroke="#F2F2F2" stroke-width="0.4"/>
<line x1="240.2" y1="-8.74228e-09" x2="240.2" y2="8" stroke="#F2F2F2" stroke-width="0.4"/>
<line x1="244.2" y1="4" x2="244.2" y2="8" stroke="#F2F2F2" stroke-width="0.4"/>
<line x1="248.2" y1="4" x2="248.2" y2="8" stroke="#F2F2F2" stroke-width="0.4"/>
<line x1="252.2" y1="4" x2="252.2" y2="8" stroke="#F2F2F2" stroke-width="0.4"/>
<line x1="256.2" y1="4" x2="256.2" y2="8" stroke="#F2F2F2" stroke-width="0.4"/>
<line x1="260.2" y1="-8.74228e-09" x2="260.2" y2="8" stroke="#F2F2F2" stroke-width="0.4"/>
<line x1="264.2" y1="4" x2="264.2" y2="8" stroke="#F2F2F2" stroke-width="0.4"/>
<line x1="268.2" y1="4" x2="268.2" y2="8" stroke="#F2F2F2" stroke-width="0.4"/>
<line x1="272.2" y1="4" x2="272.2" y2="8" stroke="#F2F2F2" stroke-width="0.4"/>
<line x1="276.2" y1="4" x2="276.2" y2="8" stroke="#F2F2F2" stroke-width="0.4"/>
<line x1="280.2" y1="-8.74228e-09" x2="280.2" y2="8" stroke="#F2F2F2" stroke-width="0.4"/>
<line x1="284.2" y1="4" x2="284.2" y2="8" stroke="#F2F2F2" stroke-width="0.4"/>
<line x1="288.2" y1="4" x2="288.2" y2="8" stroke="#F2F2F2" stroke-width="0.4"/>
<line x1="292.2" y1="4" x2="292.2" y2="8" stroke="#F2F2F2" stroke-width="0.4"/>
<line x1="296.2" y1="4" x2="296.2" y2="8" stroke="#F2F2F2" stroke-width="0.4"/>
<line x1="300.2" y1="-8.74228e-09" x2="300.2" y2="8" stroke="#F2F2F2" stroke-width="0.4"/>
<line x1="304.2" y1="4" x2="304.2" y2="8" stroke="#F2F2F2" stroke-width="0.4"/>
<line x1="308.2" y1="4" x2="308.2" y2="8" stroke="#F2F2F2" stroke-width="0.4"/>
<line x1="312.2" y1="4" x2="312.2" y2="8" stroke="#F2F2F2" stroke-width="0.4"/>
<line x1="316.2" y1="4" x2="316.2" y2="8" stroke="#F2F2F2" stroke-width="0.4"/>
<line x1="320.2" y1="-8.74228e-09" x2="320.2" y2="8" stroke="#F2F2F2" stroke-width="0.4"/>
<line x1="324.2" y1="4" x2="324.2" y2="8" stroke="#F2F2F2" stroke-width="0.4"/>
<line x1="328.2" y1="4" x2="328.2" y2="8" stroke="#F2F2F2" stroke-width="0.4"/>
<line x1="332.2" y1="4" x2="332.2" y2="8" stroke="#F2F2F2" stroke-width="0.4"/>
<line x1="336.2" y1="4" x2="336.2" y2="8" stroke="#F2F2F2" stroke-width="0.4"/>
<line x1="340.2" y1="-8.74228e-09" x2="340.2" y2="8" stroke="#F2F2F2" stroke-width="0.4"/>
<line x1="344.2" y1="4" x2="344.2" y2="8" stroke="#F2F2F2" stroke-width="0.4"/>
<line x1="348.2" y1="4" x2="348.2" y2="8" stroke="#F2F2F2" stroke-width="0.4"/>
<line x1="352.2" y1="4" x2="352.2" y2="8" stroke="#F2F2F2" stroke-width="0.4"/>
<line x1="356.2" y1="4" x2="356.2" y2="8" stroke="#F2F2F2" stroke-width="0.4"/>
<line x1="360.2" y1="-8.74228e-09" x2="360.2" y2="8" stroke="#F2F2F2" stroke-width="0.4"/>
<line x1="364.2" y1="4" x2="364.2" y2="8" stroke="#F2F2F2" stroke-width="0.4"/>
<line x1="368.2" y1="4" x2="368.2" y2="8" stroke="#F2F2F2" stroke-width="0.4"/>
<line x1="372.2" y1="4" x2="372.2" y2="8" stroke="#F2F2F2" stroke-width="0.4"/>
<line x1="376.2" y1="4" x2="376.2" y2="8" stroke="#F2F2F2" stroke-width="0.4"/>
<line x1="380.2" y1="-8.74228e-09" x2="380.2" y2="8" stroke="#F2F2F2" stroke-width="0.4"/>
</svg>
