<svg width="873" height="730" viewBox="0 0 873 730" fill="none" xmlns="http://www.w3.org/2000/svg">
<path d="M553.093 442.479C551.466 435.722 554.132 426.884 555.806 418.096C557.096 411.29 559.098 404.035 556.091 397.969C549.758 385.197 536.887 382.214 524.23 376.804C511.8 371.492 501.109 384.293 488.35 385.46C475.402 386.648 467.026 382.054 456.133 389.258C445.008 396.613 437.369 393.97 433.28 407.773C431.969 412.196 432.217 416.392 432.697 420.238C433.763 428.727 437.401 435.917 434.908 444.052C433.521 448.564 429.428 453.934 426.955 460.43C422.156 473.052 416.602 486.428 422.342 495.125C430.098 506.87 452.009 504.325 465.505 511.058C478.178 517.38 484.102 504.081 496.473 503.943C510.267 503.806 519.34 509.302 530.161 501.214M391.612 377.494C390.892 380.849 391.152 384.027 391.343 386.863C391.766 393.075 393.184 398.079 390.469 403.542C388.867 406.756 385.422 410.407 383.821 415.198C380.65 424.661 377.325 434.613 381.739 441.3C387.481 449.99 403.93 446.472 413.914 451.449C423.03 455.992 427.471 447.311 436.078 447.435C446.071 447.578 452.361 451.165 459.96 445.142C466.856 439.677 479.694 436.373 484.575 426.574C491.042 413.585 479.354 410.113 476.522 401.713C474.976 397.116 475.894 391.085 476.361 384.713C476.704 380.021 478.124 374.606 476.084 369.913M411.691 368.9C405.192 373.195 402.874 373.87 401.585 382.391C401.155 385.218 401.421 387.873 401.466 390.211C401.569 395.28 401.829 399.19 399.046 403.321C397.309 405.888 394.218 408.682 393.046 412.618C390.694 420.51 388.48 428.745 392.232 434.427C396.959 441.592 410.671 437.581 418.905 441.686C426.244 445.348 429.946 438.979 436.698 439.232C444.791 439.528 449.694 442.158 455.678 437.166C461.007 432.726 470.844 429.77 474.851 421.729C480.476 410.425 471.845 407.925 469.049 401.388C467.546 397.871 467.601 393.266 467.448 388.074C467.343 384.452 468.454 379.947 466.896 375.933M616.32 10.8393C694.78 49.9648 790.196 42.7838 835.287 111.052C881.804 181.485 763.487 306.378 768.729 390.632C773.812 472.298 903.781 513.181 864.675 591.68C825.569 670.178 696.119 687.399 627.884 732.512C557.486 779.052 497.008 738.161 412.788 743.403C331.163 748.488 297.761 846.96 219.294 807.833C140.834 768.707 17.8437 753.165 -27.2471 684.897C-73.7642 614.463 61.5094 471.895 56.2676 387.64C51.1869 305.968 -35.8584 240.632 3.2477 162.133C42.3538 83.6345 115.092 126.757 183.333 81.6466C253.732 35.1065 305.484 71.8818 389.697 66.6374C471.327 61.5611 537.86 -28.2861 616.32 10.8393ZM224.285 798.07C147.575 759.816 27.3212 744.766 -16.7616 678.022C-46.4183 633.112 -0.606327 558.255 33.4767 488.747C51.6751 451.636 66.5691 416.083 64.8352 387.424C61.4645 332.217 19.7802 284.65 7.0471 235.138C1.38309 213.099 1.44997 190.675 13.2067 167.026C51.3748 90.2712 122.351 132.305 189.042 88.2163C257.831 42.7396 308.411 78.6448 390.698 73.5133C470.469 68.5339 535.496 -19.2329 612.174 18.9793C688.859 57.1937 782.036 50.2881 826.08 117.057C846.392 147.858 834.539 189.283 815.684 233.014C792.404 287.117 758.382 344.771 761.239 390.286C766.268 470.075 893.199 510 854.933 586.821C816.701 663.562 690.247 680.425 623.579 724.513C554.797 770.015 495.697 730.085 413.389 735.187C333.633 740.148 300.97 836.307 224.285 798.07ZM229.276 788.306C154.32 750.934 36.7988 736.367 -6.2713 671.156C-35.2651 627.251 9.43071 554.102 42.699 486.173C60.4616 449.915 75.043 415.187 73.41 387.209C70.1929 333.302 29.5737 286.859 17.1655 238.499C11.6456 216.965 11.7036 195.049 23.1681 171.934C60.3961 96.9305 129.604 137.873 194.753 94.8019C261.932 50.3887 311.34 85.4237 391.704 80.3983C469.611 75.5295 533.125 -10.1593 608.021 27.1396C682.93 64.4431 773.876 57.8151 816.876 123.079C836.708 153.194 825.14 193.67 806.764 236.373C784.1 289.219 750.931 345.519 753.758 389.958C758.725 467.853 882.617 506.819 845.184 581.96C807.835 656.939 684.369 673.448 619.272 716.521C552.098 760.989 494.392 722.018 413.984 726.968C336.098 731.798 304.183 825.662 229.276 788.306ZM234.266 778.544C161.068 742.046 46.2764 727.97 4.21437 664.282C-24.1165 621.382 19.47 549.943 51.9167 483.592C69.2434 448.186 83.5169 414.292 81.9802 386.986C78.9076 334.384 39.3671 289.07 27.2815 241.845C21.9057 220.816 21.9548 199.407 33.1273 176.827C69.4149 103.575 136.856 143.418 200.464 101.365C266.034 58.0156 314.269 92.1805 392.708 87.268C468.753 82.5029 530.76 -1.10553 603.872 35.287C677.002 71.6703 765.714 65.3268 807.666 129.092C827.019 158.522 815.736 198.049 797.832 239.722C775.789 291.319 743.478 346.253 746.261 389.61C751.188 465.634 872.04 503.648 835.446 577.111C798.967 650.323 678.488 666.479 614.965 708.53C549.407 751.96 493.088 713.946 414.583 718.76C338.568 723.459 307.392 815.01 234.266 778.544ZM239.257 768.78C167.816 733.157 55.7539 719.57 14.7045 657.416C-12.9635 615.521 29.5069 545.79 61.1389 481.018C78.0298 446.465 91.9953 413.406 90.548 386.769C87.62 335.472 49.1535 291.276 37.3882 245.194C32.1567 224.67 32.2037 203.771 43.0794 181.717C78.4269 110.215 144.102 148.961 206.166 107.932C270.133 65.6481 317.19 98.9406 393.705 94.1342C467.889 89.4728 528.387 7.9516 599.712 43.4217C671.066 78.8941 757.54 72.8258 798.448 135.085C817.313 163.828 806.329 202.411 788.897 243.053C767.471 293.392 736.016 346.966 738.766 389.255C743.638 463.408 861.453 500.458 825.693 572.241C790.101 643.699 672.61 659.502 610.658 700.537C546.707 742.933 491.775 705.876 415.175 710.548C341.039 715.111 310.607 804.358 239.257 768.78ZM244.248 759.018C174.564 724.269 65.2315 711.172 25.1902 650.542C-1.81492 609.652 39.5393 541.628 70.3567 478.436C86.8139 444.729 100.469 412.511 99.1159 386.552C96.3415 336.556 58.9446 293.493 47.502 248.547C42.4145 228.528 42.4549 208.129 53.0363 186.617C87.4435 116.866 151.353 154.513 211.873 114.509C274.23 73.2887 320.123 105.706 394.704 101.018C467.026 96.4599 526.018 17.0191 595.558 51.5828C665.131 86.1419 749.373 80.3513 789.241 141.114C807.626 169.171 796.927 206.807 779.973 246.426C759.169 295.511 728.57 347.724 731.276 388.932C736.094 461.187 850.869 497.285 815.951 567.383C781.235 637.077 666.741 652.521 606.359 692.541C544.026 733.899 490.479 697.805 415.776 702.332C343.509 706.771 313.823 793.707 244.248 759.018ZM249.241 749.248C181.314 715.373 74.7114 702.767 35.6781 643.66C9.34276 603.778 49.5809 537.462 79.5745 475.854C95.5959 442.999 108.996 411.617 107.686 386.329C105.164 337.635 68.7312 295.701 57.618 251.892C52.6747 232.378 52.7063 212.487 63.0024 191.512C96.4625 123.51 158.61 160.068 217.592 121.074C278.341 80.9104 323.06 112.465 395.715 107.889C466.175 103.435 523.661 26.0746 591.41 59.7296C659.207 93.3777 741.218 87.8647 780.034 147.12C797.939 174.492 787.445 211.144 771.043 249.767C750.757 297.547 721.113 348.448 723.786 388.586C728.558 458.966 840.294 494.106 806.206 562.531C772.365 630.467 660.867 645.554 602.059 684.551C541.333 724.875 489.18 689.741 416.385 694.118C345.981 698.424 317.031 783.054 249.241 749.248ZM254.225 739.483C188.052 706.49 84.1891 694.368 46.1616 636.792C20.4892 597.916 59.6089 533.314 88.7969 473.28C104.382 441.279 117.483 410.727 116.254 386.112C113.894 338.714 78.5246 297.911 67.7249 255.242C62.9258 236.233 62.9484 216.849 72.9524 196.409C105.472 130.158 165.854 165.617 223.285 127.647C282.424 88.546 325.971 119.23 396.703 114.76C465.302 110.41 521.278 35.137 587.245 67.8788C653.267 100.616 733.042 95.3713 770.816 153.137C788.237 179.814 778.019 215.523 762.109 253.121C742.419 299.637 713.658 349.187 716.287 388.244C721.014 456.744 829.703 490.93 796.457 557.671C763.492 623.842 654.989 638.577 597.745 676.557C538.636 715.843 487.86 681.67 416.97 685.905C348.444 690.081 320.247 772.403 254.225 739.483ZM259.216 729.719C194.8 697.601 93.6668 685.97 56.6474 629.917C31.6355 592.053 69.6482 529.154 98.0147 470.698C113.164 439.549 125.964 409.834 124.824 385.889C122.632 339.795 88.3112 300.118 77.841 258.587C73.186 240.083 73.2066 221.209 82.9139 201.295C114.494 136.795 173.116 171.158 228.996 134.209C286.526 96.1723 328.9 125.987 397.707 121.629C464.442 117.39 518.914 44.1902 583.092 76.0164C647.332 107.84 724.875 102.873 761.605 159.134C778.545 185.125 768.598 219.881 753.175 256.453C734.087 301.707 706.196 349.902 708.786 387.887C713.46 454.511 819.112 487.731 786.697 552.798C754.615 617.207 649.099 631.589 593.429 668.547C535.927 706.799 486.547 673.578 417.56 677.677C350.916 681.734 323.454 761.756 259.216 729.719ZM264.207 719.956C201.548 688.712 103.144 677.571 67.1375 623.052C42.7885 586.192 79.6851 525.001 107.237 468.125C121.953 437.821 134.452 408.942 133.397 385.681C131.365 340.89 98.109 302.337 87.9591 261.949C83.4483 243.949 83.4599 225.582 92.8751 206.203C123.515 143.454 180.37 176.719 234.71 140.788C290.636 103.817 331.832 132.759 398.715 128.508C463.588 124.372 516.552 53.2592 578.948 84.1722C641.412 115.085 716.724 110.396 752.4 165.155C768.86 190.462 759.192 224.266 744.254 259.812C725.769 303.804 698.754 350.645 701.307 387.552C705.93 452.293 808.542 484.562 776.968 547.944C745.76 610.595 643.241 624.619 589.142 660.562C533.257 697.775 485.262 665.518 418.175 669.466C353.386 673.393 326.669 751.105 264.207 719.956ZM269.197 710.194C208.296 679.824 112.622 669.173 77.6233 616.177C53.9441 580.325 89.7176 520.84 116.455 465.543C130.735 436.092 142.933 408.05 141.96 385.455C140.096 341.969 107.896 304.544 98.0684 265.292C93.7017 247.798 93.7045 229.938 102.828 211.094C132.527 150.096 187.616 182.262 240.412 147.356C294.729 111.448 334.752 139.52 399.71 135.382C462.722 131.349 514.171 62.315 574.783 92.3215C635.466 122.321 708.546 117.909 743.182 171.172C759.162 195.793 749.765 228.645 735.311 263.171C717.428 305.902 691.283 351.387 693.797 387.222C698.38 450.068 797.953 481.379 767.22 543.084C736.888 603.97 637.356 617.641 584.828 652.568C530.557 688.75 483.942 657.448 418.76 661.252C355.856 665.053 329.878 740.451 269.197 710.194ZM274.188 700.43C215.037 670.933 122.1 660.774 88.109 609.302C65.0927 574.455 99.757 516.68 125.67 462.967C139.515 434.369 151.413 407.156 150.528 385.238C148.831 343.057 117.682 306.751 108.175 268.642C103.953 251.652 103.947 234.3 112.787 215.986C141.546 156.739 194.867 187.814 246.121 153.925C298.828 119.081 337.681 146.276 400.714 142.25C461.871 138.324 511.807 71.3679 570.637 100.461C629.546 129.543 700.386 125.413 733.977 177.171C749.471 201.104 740.352 233.005 726.391 266.507C709.111 307.976 683.842 352.108 686.318 386.864C690.839 447.839 787.371 478.198 757.471 538.223C728.015 597.344 631.478 610.664 580.523 644.569C527.862 679.71 482.639 649.374 419.362 653.036C358.328 656.706 333.093 729.8 274.188 700.43ZM279.181 690.661C221.786 662.038 131.582 652.362 98.6012 602.43C76.2478 568.589 109.796 512.52 134.895 460.387C148.303 432.642 159.901 406.266 159.105 385.017C157.568 344.138 127.482 308.964 118.298 271.99C114.226 255.508 114.211 238.663 122.753 220.881C150.571 163.385 202.126 193.362 251.839 160.491C302.936 126.71 340.624 153.037 401.724 149.122C461.02 145.3 509.447 80.4307 566.488 108.608C623.615 136.777 692.223 132.925 724.768 183.184C739.781 206.432 730.936 237.372 717.459 269.855C700.781 310.062 676.381 352.839 678.819 386.523C683.286 445.622 776.782 475.016 747.721 533.362C719.147 590.728 625.597 603.695 576.215 636.577C525.169 670.687 481.333 641.308 419.954 644.825C360.798 648.366 336.302 719.147 279.181 690.661ZM284.172 680.898C228.532 653.156 141.059 643.963 109.087 595.555C87.3965 562.719 119.826 508.365 144.119 457.807C157.094 430.907 168.391 405.368 167.673 384.801C166.304 345.227 137.269 311.171 128.412 275.342C124.484 259.365 124.46 243.027 132.709 225.78C159.588 170.036 209.377 198.914 257.546 167.068C307.033 134.35 343.549 159.807 402.726 155.998C460.157 152.286 507.081 89.4908 562.33 116.76C617.682 144.017 684.059 140.443 715.559 189.196C730.092 211.759 721.525 241.749 708.534 273.205C692.452 312.148 668.935 353.574 671.336 386.18C675.752 443.395 766.208 471.837 737.982 528.497C710.283 584.098 619.728 596.714 571.913 628.571C522.476 661.641 480.027 633.218 420.56 636.595C363.263 640.016 339.518 708.496 284.172 680.898ZM289.163 671.135C235.28 644.267 150.537 635.564 119.577 588.689C98.5497 556.858 129.87 504.215 153.342 455.234C165.881 429.187 176.876 404.484 176.247 384.586C175.046 346.317 147.067 313.39 138.525 278.694C134.742 263.222 134.71 247.391 142.666 230.68C168.605 176.686 216.627 204.466 263.253 173.644C311.137 141.992 346.474 166.576 403.725 162.881C459.295 159.273 504.71 98.5643 558.179 124.913C611.756 151.26 675.894 147.961 706.347 195.215C720.394 217.091 712.105 246.129 699.605 276.569C684.125 314.25 661.478 354.32 663.839 385.854C668.204 441.186 755.621 468.67 728.233 523.659C701.411 577.496 613.85 589.76 567.606 620.602C519.786 652.633 478.721 625.174 421.152 628.406C365.733 631.676 342.726 697.842 289.163 671.135ZM294.147 661.369C242.02 635.376 160.007 627.164 130.056 581.813C109.698 550.989 139.895 500.051 162.552 452.649C174.655 427.455 185.352 403.582 184.811 384.36C183.769 347.394 156.849 315.588 148.634 282.037C144.995 267.07 144.954 251.747 152.621 235.563C177.621 183.314 223.882 210.004 268.959 180.198C315.234 149.61 349.398 173.324 404.726 169.734C458.435 166.23 502.343 107.602 554.021 133.042C605.816 158.475 667.723 155.454 697.131 201.203C710.698 222.393 702.68 250.479 690.666 279.892C675.788 316.311 653.947 355.035 656.342 385.483C660.543 438.948 745.032 465.465 718.479 518.766C692.538 570.848 607.967 582.752 563.294 612.578C517.081 643.576 477.41 617.076 421.74 620.163C368.204 623.329 345.939 687.198 294.147 661.369ZM299.138 651.607C248.768 626.488 169.485 618.765 140.542 574.938C120.847 545.12 149.928 495.889 171.77 450.067C183.437 425.725 193.833 402.689 193.374 384.135C192.502 348.466 166.635 317.796 158.744 285.38C155.249 270.918 155.173 256.087 162.58 240.456C186.535 189.907 231.132 215.556 274.668 186.768C319.335 157.236 352.325 180.087 405.728 176.61C457.575 173.21 499.974 116.669 549.87 141.196C599.89 165.718 659.558 162.972 687.926 207.225C701.013 227.729 693.274 254.864 681.745 283.251C667.47 318.408 646.499 355.776 648.854 385.153C652.995 436.74 734.455 462.293 708.739 513.924C683.674 564.24 602.098 575.793 558.991 604.595C514.395 634.555 476.102 609.016 422.345 611.956C370.674 614.989 349.155 676.547 299.138 651.607ZM304.128 641.844C255.516 617.599 178.969 610.369 151.032 568.072C132 539.259 159.972 491.739 180.99 447.501C192.224 424.005 202.316 401.812 201.946 383.927C201.235 349.561 176.426 320.012 168.862 288.741C165.511 274.784 165.426 260.46 172.541 245.364C195.549 196.564 238.387 221.118 280.38 193.354C323.437 164.885 355.254 186.866 406.734 183.495C456.719 180.198 497.612 125.738 545.719 149.349C593.956 172.959 651.4 170.492 678.717 213.237C691.324 233.056 683.856 259.238 672.813 286.599C659.141 320.494 639.037 356.513 641.362 384.814C645.445 434.515 723.871 459.119 698.997 509.066C674.806 557.624 596.226 568.819 554.69 596.606C511.702 625.531 474.801 600.845 422.944 603.747C373.135 606.539 352.363 665.894 304.128 641.844ZM309.119 632.081C262.261 608.718 188.447 601.971 161.517 561.198C143.148 533.39 170.004 487.577 190.208 444.919C201.005 422.275 210.799 400.912 210.514 383.711C209.968 350.656 186.217 322.229 178.969 292.092C175.762 278.64 175.669 264.823 182.491 250.262C204.552 203.21 245.631 226.667 286.082 199.921C327.529 172.516 358.177 193.62 407.729 190.369C455.852 187.176 495.232 134.794 541.561 157.501C588.023 180.199 643.229 178.008 669.505 219.257C681.625 238.388 674.436 263.619 663.886 289.956C650.816 322.589 631.582 357.253 633.87 384.475C637.893 432.297 713.289 455.939 689.248 504.205C665.94 551.001 590.341 561.84 550.386 588.607C509.014 616.494 473.493 592.762 423.546 595.531C375.607 598.192 355.579 655.243 309.119 632.081ZM314.112 622.311C269.012 599.822 197.927 593.565 172.003 554.323C154.304 527.523 180.041 483.424 199.432 442.339C209.794 420.548 219.287 400.021 219.085 383.487C218.706 351.737 196.006 324.43 189.085 295.437C186.022 282.49 185.922 269.173 192.453 255.148C213.567 209.845 252.886 232.206 291.794 206.484C331.638 180.145 361.107 200.376 408.726 197.236C454.999 194.158 492.872 143.856 537.413 165.648C582.095 187.426 635.067 185.519 660.296 225.269C671.936 243.715 665.018 267.993 654.952 293.31C642.478 324.68 624.12 357.99 626.375 384.142C630.338 430.087 702.709 452.774 679.502 499.36C657.07 544.392 584.465 554.88 546.074 580.629C506.31 607.482 472.178 584.7 424.134 587.333C378.072 589.842 358.788 644.589 314.112 622.311ZM319.103 612.548C275.752 590.931 207.405 585.167 182.496 547.451C165.459 521.655 190.08 479.265 208.657 439.759C218.583 418.82 227.774 399.13 227.661 383.266C227.443 352.819 205.806 326.642 199.208 298.785C196.289 286.342 196.18 273.533 202.419 260.042C222.585 216.488 260.143 237.76 297.509 213.056C335.743 187.78 364.047 207.144 409.736 204.107C454.135 201.129 490.501 152.907 533.259 173.786C576.166 194.653 626.9 193.021 651.085 231.266C662.247 249.02 655.604 272.354 646.025 296.644C634.152 326.752 616.662 358.714 618.883 383.78C622.787 427.839 692.127 449.571 669.753 494.477C648.195 537.75 578.587 547.881 541.769 572.607C503.622 598.422 470.876 576.597 424.73 579.085C380.546 581.488 362.003 633.938 319.103 612.548ZM324.094 602.785C282.5 582.043 216.882 576.768 192.979 540.583C176.605 515.793 200.111 475.11 217.872 437.183C227.363 417.097 236.255 398.237 236.229 383.049C236.179 353.907 215.591 328.856 209.314 302.134C206.54 290.197 206.422 277.896 212.375 264.942C231.595 223.136 267.4 243.314 303.218 219.626C339.843 195.414 366.974 213.907 410.738 210.983C453.275 208.108 488.132 161.974 529.102 181.937C570.233 201.893 618.735 200.539 641.873 237.285C652.549 254.351 646.184 276.734 637.098 300.001C625.828 328.847 609.207 359.453 611.395 383.45C615.239 425.631 681.548 446.406 660.015 489.627C639.334 531.136 572.72 540.915 537.473 564.627C500.933 589.408 469.578 568.533 425.341 570.888C383.011 573.139 365.21 623.292 324.094 602.785ZM329.078 593.02C289.241 573.152 226.353 568.367 203.465 533.708C187.754 509.923 210.15 470.95 227.088 434.608C236.144 415.368 244.733 397.351 244.788 382.837C244.905 354.999 225.375 331.07 219.419 305.491C216.789 294.059 216.655 282.262 222.326 269.839C240.598 229.782 274.644 248.864 308.918 226.2C343.94 203.054 369.901 220.67 411.739 217.859C452.415 215.088 485.765 171.034 524.95 190.091C564.3 209.133 610.57 208.058 632.664 243.298C642.859 259.679 636.766 281.109 628.166 303.349C617.498 330.933 601.747 360.184 603.898 383.102C607.689 423.406 670.961 443.217 650.259 484.764C630.461 524.511 566.789 533.868 533.152 556.63C498.177 580.302 468.253 560.453 425.919 562.672C385.483 564.792 368.425 612.641 329.078 593.02ZM334.068 583.257C295.986 564.27 235.83 559.969 213.95 526.833C198.909 504.056 220.109 466.756 236.305 432.025C244.887 413.618 253.214 396.458 253.358 382.613C253.635 356.078 235.161 333.278 229.535 308.837C227.049 297.91 226.906 286.62 232.284 274.732C249.612 236.417 281.896 254.409 314.627 232.77C348.032 210.685 372.819 227.438 412.734 224.733C451.554 222.068 483.389 180.099 520.788 198.233C558.362 216.365 602.394 215.564 623.441 249.306C633.156 265.001 627.335 285.478 619.225 306.701C609.16 333.024 594.276 360.925 596.397 382.767C600.127 421.193 660.368 440.047 640.508 479.91C621.584 517.899 560.904 526.889 528.844 548.638C495.479 571.27 466.95 552.379 426.52 554.456C387.948 556.442 371.634 601.987 334.068 583.257ZM339.059 573.494C302.734 555.382 245.308 551.57 224.434 519.965C210.056 498.193 230.139 462.601 245.521 429.45C253.667 411.895 261.693 395.571 261.926 382.397C262.368 357.173 244.955 335.487 239.649 312.189C237.307 301.767 237.156 290.985 242.242 279.631C258.622 243.065 289.147 259.962 320.337 239.34C352.138 218.32 375.748 234.194 413.738 231.602C450.697 229.041 481.025 189.152 516.639 206.38C552.432 223.598 594.239 223.078 614.241 255.314C623.47 270.321 617.933 289.85 610.302 310.044C600.84 335.105 586.825 361.651 588.909 382.414C592.582 418.955 649.791 436.853 630.764 475.036C612.716 511.26 555.03 519.899 524.542 540.632C492.786 562.223 465.644 544.29 427.117 546.231C390.421 548.095 374.85 591.336 339.059 573.494ZM344.052 563.724C309.484 546.486 254.788 543.165 234.928 513.086C221.213 492.319 240.181 458.435 254.754 426.865C262.465 410.163 270.189 394.676 270.505 382.169C271.115 358.25 254.757 337.693 249.767 315.527C247.569 305.61 247.409 295.336 252.21 284.519C267.643 249.702 296.406 265.509 326.055 245.905C356.246 225.949 378.684 240.952 414.748 238.474C449.843 236.023 478.668 198.208 512.491 214.527C546.508 230.834 586.143 230.55 605.032 261.326C613.81 275.628 608.515 294.224 601.377 313.394C592.515 337.2 579.372 362.384 581.424 382.077C585.036 416.739 639.213 433.682 621.026 470.187C603.861 504.648 549.157 512.932 520.241 532.643C490.102 553.196 464.34 536.217 427.716 538.022C392.895 539.741 378.065 580.685 344.052 563.724ZM349.043 553.961C316.232 537.598 264.266 534.766 245.412 506.218C232.36 486.457 250.211 454.28 263.97 424.29C271.244 408.44 278.67 393.783 279.071 381.959C279.841 359.343 264.541 339.907 259.878 318.886C257.832 309.477 257.656 299.707 262.167 289.419C276.653 256.35 303.657 271.061 331.762 252.482C360.346 233.582 381.609 247.722 415.75 245.35C448.984 243.003 476.292 207.272 508.342 222.674C540.584 238.07 577.983 238.054 595.823 267.339C604.121 280.955 599.097 298.598 592.445 316.742C584.178 339.284 571.91 363.121 573.927 381.729C577.479 414.512 628.627 430.492 611.28 465.319C594.989 498.023 543.274 505.946 515.937 524.644C487.408 544.156 463.039 528.136 428.318 529.805C395.36 531.391 381.274 570.031 349.043 553.961ZM354.034 544.198C322.98 528.709 273.75 526.37 255.904 499.346C243.515 480.589 260.248 450.127 273.194 421.71C280.028 406.703 287.157 392.892 287.648 381.737C288.583 360.433 274.3 342.128 270.001 322.234C268.074 313.336 267.914 304.067 272.132 294.313C285.672 262.993 310.916 276.609 337.48 259.047C364.454 241.211 384.552 254.483 416.76 252.221C448.133 249.978 473.934 216.328 504.193 230.82C534.655 245.297 569.827 245.568 586.622 273.347C594.441 286.278 589.693 302.976 583.527 320.094C575.86 341.381 564.464 363.856 566.448 381.394C569.947 412.302 618.056 427.322 601.542 460.47C586.127 491.409 537.409 498.974 511.643 516.656C484.721 535.135 461.742 520.065 428.926 521.592C397.832 523.044 384.487 559.387 354.034 544.198ZM359.025 534.435C329.725 519.828 283.227 517.972 266.39 492.471C254.67 474.722 270.28 445.965 282.41 419.135C288.808 404.981 295.636 392.006 296.215 381.521C297.309 361.526 284.087 344.336 280.108 325.584C278.324 317.191 278.156 308.429 282.082 299.211C294.674 269.64 318.166 282.161 343.179 265.621C368.544 248.849 387.47 261.251 417.755 259.095C447.266 256.955 471.559 225.393 500.035 238.972C528.722 252.537 561.656 253.084 577.404 279.364C584.742 291.61 580.266 307.355 574.586 323.447C567.522 343.472 556.995 364.591 558.942 381.051C562.38 410.08 607.461 424.138 591.786 455.607C577.252 484.791 531.517 491.993 507.329 508.663C482.017 526.1 460.431 511.99 429.518 513.38C400.297 514.695 387.696 548.734 359.025 534.435ZM364.015 524.672C336.473 510.939 292.705 509.573 276.873 485.603C265.816 468.86 280.31 441.81 291.625 416.559C297.587 403.258 304.112 391.127 304.777 381.302C306.035 362.619 293.864 346.548 290.215 328.934C288.575 321.046 288.398 312.792 292.032 304.108C303.677 276.286 325.41 287.711 348.879 272.196C372.641 256.489 390.388 268.019 418.747 265.976C446.396 263.94 469.183 234.457 495.87 247.121C522.775 259.773 553.484 260.599 568.188 285.374C575.046 296.935 570.841 311.727 565.654 326.794C559.19 345.565 549.533 365.328 551.45 380.712C554.828 407.862 596.877 420.964 582.037 450.746C568.379 478.165 525.639 485.017 503.015 500.668C479.313 517.066 459.114 503.912 430.103 505.167C402.769 506.348 390.911 538.083 364.015 524.672ZM368.999 514.906C343.207 502.046 302.178 501.165 287.359 478.728C276.965 462.99 290.343 437.648 300.843 413.977C306.369 401.528 312.593 390.233 313.345 381.085C314.768 363.713 303.655 348.764 300.329 332.286C298.833 324.903 298.647 317.156 301.999 309.002C312.696 282.929 332.668 293.265 354.598 278.761C376.75 264.117 393.327 274.77 419.76 272.84C445.548 270.908 466.828 243.506 491.731 255.263C516.861 267.004 545.333 268.099 558.988 291.382C565.362 302.248 561.437 316.105 556.739 330.139C550.874 347.655 542.089 366.056 543.969 380.361C547.294 405.635 586.306 417.771 572.304 445.883C559.523 471.537 519.77 478.035 498.726 492.667C476.634 508.023 457.829 495.829 430.716 496.939C405.234 497.998 394.12 527.429 368.999 514.906ZM373.992 505.137C349.957 493.151 311.658 492.76 297.844 471.854C288.113 457.121 300.375 433.487 310.061 411.395C315.153 399.792 321.073 389.341 321.914 380.862C323.497 364.8 313.444 350.965 310.444 335.632C309.093 328.754 308.898 321.514 311.957 313.895C321.708 289.57 339.92 298.81 360.307 285.331C380.849 271.751 396.253 281.533 420.762 279.716C444.685 277.895 464.436 252.619 487.573 263.415C510.902 274.298 537.169 275.617 549.772 297.392C555.665 307.573 552.012 320.478 547.8 333.485C542.536 349.746 534.62 366.791 536.463 380.017C539.729 403.406 575.708 414.593 562.541 441.018C550.634 464.914 513.877 471.055 494.405 484.671C473.922 498.987 456.505 487.749 431.301 488.726C407.706 489.651 397.335 516.778 373.992 505.137ZM378.983 495.374C356.705 484.262 321.135 484.361 308.337 464.981C299.276 451.255 310.414 429.327 319.292 408.817C323.942 398.064 329.573 388.461 330.492 380.64C332.232 365.888 323.244 353.177 320.56 338.977C319.354 332.604 319.149 325.871 321.917 318.788C330.725 296.221 347.173 304.355 366.016 291.9C384.948 279.384 399.18 288.296 421.763 286.592C443.825 284.874 462.067 261.685 483.424 271.561C504.971 281.531 529.006 283.128 540.57 303.407C545.983 312.902 542.606 324.863 538.88 336.844C534.216 351.85 527.172 367.533 528.984 379.683C532.19 401.193 565.14 411.417 552.813 436.164C541.789 458.298 508.015 464.076 490.113 476.676C471.239 489.959 455.217 479.673 431.91 480.512C410.178 481.304 400.544 506.125 378.983 495.374ZM383.974 485.611C363.45 475.38 330.613 475.963 318.82 458.113C310.422 445.393 320.442 425.179 328.505 406.248C332.719 396.348 338.047 387.589 339.057 380.431C340.96 366.997 333.029 355.391 330.672 342.336C329.609 336.468 329.396 330.243 331.873 323.687C339.735 302.869 354.423 309.907 371.725 298.47C389.047 287.017 402.107 295.06 422.767 293.461C442.968 291.847 459.701 270.746 479.269 279.706C499.041 288.765 520.844 290.639 531.356 309.411C536.289 318.22 533.181 329.235 529.943 340.183C525.879 353.933 519.705 368.261 521.481 379.332C524.633 398.966 554.545 408.232 543.057 431.301C532.909 451.67 502.13 457.097 485.799 468.682C468.541 480.926 453.9 471.595 432.504 472.294C412.643 472.955 403.76 495.474 383.974 485.611ZM388.965 475.848C370.198 466.492 340.091 467.564 329.306 451.239C321.571 439.523 330.475 421.017 337.723 403.666C341.501 394.619 346.518 386.7 347.627 380.207C349.684 368.096 342.815 357.598 340.788 345.681C339.869 340.318 339.654 334.603 341.833 328.58C348.754 309.513 361.68 315.462 377.434 305.04C393.153 294.653 405.041 301.825 423.769 300.337C442.108 298.827 457.327 279.804 475.118 287.86C493.108 296.005 512.679 298.158 522.144 315.43C526.598 323.554 523.766 333.625 521.016 343.54C517.55 356.042 512.25 369 513.995 378.995C517.092 396.76 543.97 405.054 533.315 426.443C524.041 445.054 496.259 450.123 481.501 460.686C465.853 471.889 452.605 463.517 433.106 464.078C415.116 464.607 406.966 484.827 388.965 475.848ZM393.956 466.085C376.946 457.603 349.568 459.166 339.799 444.366C332.726 433.656 340.514 416.858 346.948 401.086C350.29 392.891 355.003 385.816 356.195 379.99C358.401 369.193 352.608 359.808 350.892 349.038C350.118 344.18 349.894 338.972 351.787 333.486C357.761 316.168 368.929 321.021 383.138 311.623C397.248 302.299 407.964 308.602 424.768 307.22C441.252 305.816 454.956 288.877 470.958 296.018C487.172 303.252 504.513 305.682 512.931 321.456C516.904 328.895 514.348 338.022 512.079 346.901C509.209 358.162 504.79 369.753 506.492 378.667C509.528 394.553 533.374 401.891 523.559 421.602C515.169 438.452 490.367 443.164 477.18 452.712C463.14 462.882 451.281 455.46 433.684 455.884C417.588 456.26 410.182 474.176 393.956 466.085ZM398.947 456.322C383.694 448.714 359.053 450.769 350.282 437.498C343.873 427.793 350.542 412.709 356.163 398.51C359.072 391.162 363.477 384.943 364.763 379.773C367.114 370.304 362.393 362.022 361.006 352.39C360.376 348.037 360.143 343.336 361.744 338.386C366.776 322.825 376.179 326.573 388.848 318.193C401.35 309.926 410.893 315.358 425.769 314.096C440.392 312.796 452.589 297.937 466.809 304.165C481.248 310.488 496.35 313.194 503.724 327.462C507.21 334.213 504.935 342.405 503.155 350.251C500.88 360.271 497.337 370.486 499.009 378.324C501.992 392.333 522.801 398.706 513.82 416.737C506.305 431.822 484.498 436.183 472.882 444.715C460.452 453.844 449.987 447.382 434.292 447.671C420.06 447.913 413.397 463.525 398.947 456.322ZM452.418 486.235C440.677 480.383 421.498 483.411 414.748 473.197C409.671 465.505 414.108 453.836 418.1 442.796C420.137 437.153 423.913 432.644 425.398 428.774C428.011 421.974 425.47 415.881 424.733 408.529C424.398 405.188 424.14 401.5 425.159 397.612C428.315 385.562 434.182 387.104 443.763 380.774C453.045 374.633 460.249 378.357 471.272 377.282C482.169 376.219 491.353 365.499 502 369.904C512.881 374.403 523.511 377.668 528.802 388.928C531.329 394.309 529.612 400.638 528.795 406.39C527.723 413.962 525.926 421.399 527.523 427.08C530.404 437.346 545.132 441.793 537.826 456.459C532.068 468.023 516.238 471.671 507.767 478.166C498.561 485.223 490.877 480.676 478.985 480.678C468.496 480.674 463.317 491.668 452.418 486.235ZM455.319 437.166C448.842 433.936 437.859 438.436 434.138 432.802C431.057 428.128 432.161 421.603 433.684 415.286C434.427 412.205 437.14 410.252 439.03 408.345C441.834 405.523 442.778 402.73 442.996 398.804C443.095 396.971 442.834 394.828 442.961 392.524C443.341 385.773 443.868 383.983 448.816 380.711C453.276 377.763 456.958 378.867 462.207 378.124C467.527 377.374 472.191 372.895 477.466 374.568C483.02 376.318 486.93 380.446 489.096 387.184C490.167 390.511 489.424 394.14 489.932 396.663C490.75 400.728 491.53 403.852 492.968 406.28C495.75 410.962 501.313 412.479 496.512 422.107C493.381 428.384 486.536 430.995 482.776 434.404C478.404 438.371 474.894 436.7 468.702 436.252C463.841 435.898 460.876 439.938 455.319 437.166ZM433.158 433.984C428.438 431.627 420.185 436.618 417.472 432.508C415.051 428.846 415.067 424.038 415.75 419.284C416.071 417.06 418.364 415.889 420.449 414.702C423.237 413.117 425.431 411.509 425.953 408.728C426.203 407.402 425.94 405.768 425.761 403.995C425.256 399.013 423.962 396.107 427.369 393.852C430.218 391.967 432.731 392.195 436.052 391.571C439.503 390.923 442.67 388.52 446.161 389.286C449.948 390.12 451.593 394.537 452.733 399.761C453.314 402.407 453.048 405.152 453.846 406.575C455.485 409.497 456.962 411.146 458.322 412.506C461.135 415.308 463.575 415.869 459.615 423.813C457.365 428.334 453.524 430.612 451.321 432.978C448.573 435.932 446.453 435.234 442.147 434.608C439.168 434.18 436.939 435.867 433.158 433.984ZM470.958 404.88C479.944 409.358 480.385 404.919 475.91 413.91C471.435 422.9 473.173 423.646 464.19 419.162C461.224 417.688 455.704 423.161 454.003 420.584C452.245 417.927 451.216 414.843 451.013 411.652C450.822 408.565 460.633 409.989 462.114 407.024C463.589 404.057 456.548 397.074 459.123 395.372C461.779 393.614 464.862 392.584 468.051 392.381C471.128 392.195 467.992 403.406 470.958 404.88Z" stroke="url(#paint0_linear_3_13)" stroke-opacity="0.15" stroke-width="2" stroke-miterlimit="10"/>
<defs>
<linearGradient id="paint0_linear_3_13" x1="712" y1="573" x2="-505.5" y2="-340" gradientUnits="userSpaceOnUse">
<stop stop-color="#D2E5F1"/>
<stop offset="1" stop-color="#D2E5F1" stop-opacity="0"/>
</linearGradient>
</defs>
</svg>
